<mxfile host="65bd71144e">
    <diagram id="-8j7JM75Foq9sBr7qPs-" name="Page-1">
        <mxGraphModel dx="465" dy="37" grid="0" gridSize="10" guides="1" tooltips="1" connect="1" arrows="1" fold="1" page="0" pageScale="1" pageWidth="850" pageHeight="1100" math="0" shadow="0">
            <root>
                <mxCell id="0"/>
                <mxCell id="1" parent="0"/>
                <mxCell id="22" style="edgeStyle=none;html=1;exitX=1.01;exitY=0.254;exitDx=0;exitDy=0;exitPerimeter=0;" parent="1" source="2" edge="1">
                    <mxGeometry relative="1" as="geometry">
                        <mxPoint x="170" y="380" as="targetPoint"/>
                    </mxGeometry>
                </mxCell>
                <mxCell id="41" style="edgeStyle=none;html=1;exitX=0.145;exitY=1;exitDx=0;exitDy=-4.35;exitPerimeter=0;" parent="1" source="2" edge="1">
                    <mxGeometry relative="1" as="geometry">
                        <mxPoint x="790" y="190" as="targetPoint"/>
                        <Array as="points">
                            <mxPoint x="-92" y="610"/>
                            <mxPoint x="790" y="610"/>
                        </Array>
                    </mxGeometry>
                </mxCell>
                <mxCell id="2" value="DATABACE" style="shape=cylinder3;whiteSpace=wrap;html=1;boundedLbl=1;backgroundOutline=1;size=15;fontStyle=1;fontSize=14;" parent="1" vertex="1">
                    <mxGeometry x="-111" y="342" width="130" height="150" as="geometry"/>
                </mxCell>
                <mxCell id="6" style="edgeStyle=none;html=1;exitX=0.5;exitY=1;exitDx=0;exitDy=0;entryX=0.5;entryY=0;entryDx=0;entryDy=0;" parent="1" source="4" target="5" edge="1">
                    <mxGeometry relative="1" as="geometry"/>
                </mxCell>
                <mxCell id="4" value="USER" style="rounded=1;whiteSpace=wrap;html=1;" parent="1" vertex="1">
                    <mxGeometry x="211" y="120" width="120" height="53" as="geometry"/>
                </mxCell>
                <mxCell id="12" style="edgeStyle=none;html=1;exitX=0.5;exitY=1;exitDx=0;exitDy=0;" parent="1" source="5" target="11" edge="1">
                    <mxGeometry relative="1" as="geometry"/>
                </mxCell>
                <mxCell id="5" value="Registration" style="rounded=0;whiteSpace=wrap;html=1;" parent="1" vertex="1">
                    <mxGeometry x="172.5" y="240" width="197" height="54" as="geometry"/>
                </mxCell>
                <mxCell id="7" style="edgeStyle=none;html=1;exitX=0;exitY=0.5;exitDx=0;exitDy=0;" parent="1" source="5" edge="1">
                    <mxGeometry relative="1" as="geometry">
                        <mxPoint x="-46" y="360" as="targetPoint"/>
                        <Array as="points">
                            <mxPoint x="-46" y="267"/>
                        </Array>
                    </mxGeometry>
                </mxCell>
                <mxCell id="17" style="edgeStyle=none;html=1;exitX=1;exitY=0.5;exitDx=0;exitDy=0;entryX=0;entryY=0.5;entryDx=0;entryDy=0;" parent="1" source="9" target="15" edge="1">
                    <mxGeometry relative="1" as="geometry">
                        <Array as="points">
                            <mxPoint x="388" y="496"/>
                            <mxPoint x="390" y="280"/>
                        </Array>
                    </mxGeometry>
                </mxCell>
                <mxCell id="25" style="edgeStyle=none;html=1;exitX=1;exitY=0.5;exitDx=0;exitDy=0;entryX=0;entryY=0.5;entryDx=0;entryDy=0;" parent="1" source="9" target="24" edge="1">
                    <mxGeometry relative="1" as="geometry">
                        <Array as="points">
                            <mxPoint x="388" y="496"/>
                            <mxPoint x="390" y="372"/>
                        </Array>
                    </mxGeometry>
                </mxCell>
                <mxCell id="32" style="edgeStyle=none;html=1;exitX=1;exitY=0.5;exitDx=0;exitDy=0;entryX=0;entryY=0.5;entryDx=0;entryDy=0;" parent="1" source="9" target="31" edge="1">
                    <mxGeometry relative="1" as="geometry">
                        <Array as="points">
                            <mxPoint x="388" y="496"/>
                            <mxPoint x="390" y="462"/>
                        </Array>
                    </mxGeometry>
                </mxCell>
                <mxCell id="9" value="Home" style="rounded=0;whiteSpace=wrap;html=1;" parent="1" vertex="1">
                    <mxGeometry x="172.5" y="470" width="197" height="54" as="geometry"/>
                </mxCell>
                <mxCell id="14" style="edgeStyle=none;html=1;exitX=0.5;exitY=1;exitDx=0;exitDy=0;entryX=0.5;entryY=0;entryDx=0;entryDy=0;" parent="1" source="11" target="9" edge="1">
                    <mxGeometry relative="1" as="geometry"/>
                </mxCell>
                <mxCell id="11" value="LOGIN" style="rounded=0;whiteSpace=wrap;html=1;" parent="1" vertex="1">
                    <mxGeometry x="172.5" y="350" width="197" height="54" as="geometry"/>
                </mxCell>
                <mxCell id="18" style="edgeStyle=none;html=1;exitX=0.5;exitY=0;exitDx=0;exitDy=0;" parent="1" source="15" target="19" edge="1">
                    <mxGeometry relative="1" as="geometry">
                        <mxPoint x="505" y="160" as="targetPoint"/>
                    </mxGeometry>
                </mxCell>
                <mxCell id="15" value="&lt;ul class=&quot;navbar-list&quot; style=&quot;margin: 0px; padding: 0px; box-sizing: border-box; display: flex; gap: 50px; color: rgb(128, 128, 128); font-family: Poppins, sans-serif; font-size: 16px; text-align: start;&quot;&gt;&lt;li class=&quot;navbar-item&quot; style=&quot;margin: 0px; padding-top: 0px; padding-bottom: 0px; box-sizing: border-box; list-style: none; border-block-end: none;&quot;&gt;Courses&lt;/li&gt;&lt;/ul&gt;" style="rounded=0;whiteSpace=wrap;html=1;" parent="1" vertex="1">
                    <mxGeometry x="410" y="250" width="190" height="60" as="geometry"/>
                </mxCell>
                <mxCell id="19" value="Youtube Links" style="ellipse;shape=cloud;whiteSpace=wrap;html=1;" parent="1" vertex="1">
                    <mxGeometry x="445" y="120" width="120" height="80" as="geometry"/>
                </mxCell>
                <mxCell id="21" style="edgeStyle=none;html=1;exitX=0.07;exitY=0.4;exitDx=0;exitDy=0;exitPerimeter=0;entryX=0.972;entryY=0.619;entryDx=0;entryDy=0;entryPerimeter=0;" parent="1" source="19" target="4" edge="1">
                    <mxGeometry relative="1" as="geometry"/>
                </mxCell>
                <mxCell id="24" value="&lt;ul class=&quot;navbar-list&quot; style=&quot;margin: 0px; padding: 0px; box-sizing: border-box; display: flex; gap: 50px; color: rgb(128, 128, 128); font-family: Poppins, sans-serif; font-size: 16px; text-align: start;&quot;&gt;&lt;li class=&quot;navbar-item&quot; style=&quot;margin: 0px; padding-top: 0px; padding-bottom: 0px; box-sizing: border-box; list-style: none; border-block-end: none;&quot;&gt;Quiz&lt;/li&gt;&lt;/ul&gt;" style="rounded=0;whiteSpace=wrap;html=1;" parent="1" vertex="1">
                    <mxGeometry x="410" y="342" width="190" height="60" as="geometry"/>
                </mxCell>
                <mxCell id="26" style="edgeStyle=none;html=1;exitX=0.25;exitY=1;exitDx=0;exitDy=0;entryX=0.5;entryY=1;entryDx=0;entryDy=0;entryPerimeter=0;" parent="1" source="24" target="2" edge="1">
                    <mxGeometry relative="1" as="geometry">
                        <Array as="points">
                            <mxPoint x="458" y="560"/>
                            <mxPoint x="-46" y="560"/>
                        </Array>
                    </mxGeometry>
                </mxCell>
                <mxCell id="27" value="ADD&lt;div&gt;EDIT&lt;/div&gt;&lt;div&gt;MANAGE&lt;/div&gt;" style="whiteSpace=wrap;html=1;aspect=fixed;" parent="1" vertex="1">
                    <mxGeometry x="19" y="500" width="104" height="104" as="geometry"/>
                </mxCell>
                <mxCell id="30" style="edgeStyle=none;html=1;exitX=1;exitY=0.5;exitDx=0;exitDy=0;entryX=0.168;entryY=0.993;entryDx=0;entryDy=0;entryPerimeter=0;" parent="1" source="27" target="24" edge="1">
                    <mxGeometry relative="1" as="geometry">
                        <Array as="points">
                            <mxPoint x="442" y="550"/>
                        </Array>
                    </mxGeometry>
                </mxCell>
                <mxCell id="37" style="edgeStyle=none;html=1;exitX=0.874;exitY=-0.027;exitDx=0;exitDy=0;exitPerimeter=0;entryX=0.55;entryY=0.95;entryDx=0;entryDy=0;entryPerimeter=0;" parent="1" source="31" target="34" edge="1">
                    <mxGeometry relative="1" as="geometry"/>
                </mxCell>
                <mxCell id="31" value="&lt;ul class=&quot;navbar-list&quot; style=&quot;margin: 0px; padding: 0px; box-sizing: border-box; display: flex; gap: 50px; color: rgb(128, 128, 128); font-family: Poppins, sans-serif; font-size: 16px; text-align: start;&quot;&gt;&lt;li class=&quot;navbar-item&quot; style=&quot;margin: 0px; padding-top: 0px; padding-bottom: 0px; box-sizing: border-box; list-style: none; border-block-end: none;&quot;&gt;Admissions&lt;/li&gt;&lt;/ul&gt;" style="rounded=0;whiteSpace=wrap;html=1;" parent="1" vertex="1">
                    <mxGeometry x="490" y="432" width="190" height="60" as="geometry"/>
                </mxCell>
                <mxCell id="39" style="edgeStyle=none;html=1;exitX=0.875;exitY=0.5;exitDx=0;exitDy=0;exitPerimeter=0;" parent="1" source="34" edge="1">
                    <mxGeometry relative="1" as="geometry">
                        <mxPoint x="740" y="160.16666666666674" as="targetPoint"/>
                    </mxGeometry>
                </mxCell>
                <mxCell id="34" value="PHP mailer" style="ellipse;shape=cloud;whiteSpace=wrap;html=1;" parent="1" vertex="1">
                    <mxGeometry x="590" y="120" width="120" height="80" as="geometry"/>
                </mxCell>
                <mxCell id="40" value="ADMIN" style="rounded=1;whiteSpace=wrap;html=1;" parent="1" vertex="1">
                    <mxGeometry x="740" y="133.5" width="120" height="53" as="geometry"/>
                </mxCell>
            </root>
        </mxGraphModel>
    </diagram>
</mxfile>